Coordinates
version=1
nRows=14
nColumns=36
inDegrees=yes

Units are S.I. units (second, meters, Newtons, ...)
If the header above contains a line with 'inDegrees', this indicates whether rotational values are in degrees (yes) or radians (no).

endheader
time	pelvis_tilt	pelvis_list	pelvis_rotation	pelvis_tx	pelvis_ty	pelvis_tz	hip_flexion_r	hip_adduction_r	hip_rotation_r	knee_angle_r	knee_angle_r_beta	ankle_angle_r	subtalar_angle_r	mtp_angle_r	hip_flexion_l	hip_adduction_l	hip_rotation_l	knee_angle_l	knee_angle_l_beta	ankle_angle_l	subtalar_angle_l	mtp_angle_l	lumbar_extension	lumbar_bending	lumbar_rotation	arm_flex_r	arm_add_r	arm_rot_r	elbow_flex_r	pro_sup_r	arm_flex_l	arm_add_l	arm_rot_l	elbow_flex_l	pro_sup_l
      0.00000000	      3.94909270	     -5.37407542	      5.50276699	      0.31867383	      0.91667112	     -0.18439572	     24.36632445	      5.70709816	      1.17439222	     17.86472612	      0.31179829	     -4.05018735	    -22.50346797	     -6.37668204	     -5.19871965	      2.55723808	     16.17763945	     10.84635846	      0.18930467	      1.45338065	    -22.09763199	     -6.37668204	     -6.39914004	      0.78540063	     -6.86858503	     32.48505788	      1.77104658	     62.94130398	    127.54706133	    110.62195626	     37.59505694	      8.36180602	     63.49660747	    114.44026926	    101.10247429
      0.01666670	      2.89966284	     -4.67292152	      7.42926675	      0.32193679	      0.90921388	     -0.18550342	     25.70692433	      4.54079710	      2.37123331	     18.17756067	      0.31725828	     -5.06054813	    -24.83582862	     -6.50672654	     -4.56651713	      3.32464162	     20.89299596	      9.12315405	      0.15922908	      3.07360819	    -19.68670440	     -6.50672654	     -4.55987128	      0.10060864	     -8.29725448	     33.32078248	      2.16501811	     65.05640799	    129.43475710	    106.29896168	     39.05048622	      7.76898280	     66.86006240	    119.63507251	     97.18642041
      0.03333330	      1.27697671	     -4.38682193	      7.79788615	      0.32355120	      0.90738603	     -0.18584210	     26.87884753	      4.12159909	      2.67454922	     18.08125451	      0.31557742	     -4.30360078	    -23.64177156	     -6.68958204	     -2.90936852	      3.71549605	     21.63497440	      8.79965903	      0.15358302	      3.01749541	    -19.16710288	     -6.68958204	     -2.38221719	     -0.22590431	     -8.54553523	     31.89404961	      2.34702328	     66.47345270	    129.38022008	    106.21424352	     38.39168272	      6.98446208	     67.32546063	    122.73961888	     94.23069055
      0.05000000	      0.29479014	     -4.26783675	      8.17363596	      0.32377112	      0.90400767	     -0.18645102	     28.18660006	      3.75482139	      2.60318969	     18.76192965	      0.32745745	     -3.42611443	    -23.25043287	     -6.89275468	     -2.17402939	      3.80311468	     22.50983962	      8.18467116	      0.14284946	      3.18539260	    -18.31439052	     -6.89275468	     -1.27105246	     -0.32724514	     -8.64412303	     31.18330185	      2.76633509	     67.81482998	    129.34633231	    108.63154902	     38.48539522	      7.00202565	     67.74453034	    123.91296456	     91.16350477
      0.06666670	     -0.19805842	     -4.37070938	      8.48137244	      0.32012780	      0.90720634	     -0.18935543	     28.68978315	      3.78075442	      2.89439157	     19.17134416	      0.33460308	     -3.20592204	    -23.15407003	     -6.95749111	     -1.15393948	      3.84551129	     23.09945186	      8.61687376	      0.15039282	      2.81716517	    -18.67607117	     -6.95749111	     -0.87862999	      0.21371602	     -8.90108193	     30.53195503	      2.83856012	     68.83767684	    128.53445950	    107.77861911	     38.40099396	      7.05340124	     67.99415432	    124.14446555	     89.05757294
      0.08333330	     -0.32527355	     -4.49172952	      8.75051854	      0.32046027	      0.90890852	     -0.18961231	     28.70337206	      3.81447175	      3.00659035	     18.91532822	      0.33013476	     -3.34811189	    -23.60971978	     -7.09800904	     -0.67769913	      3.73122247	     23.14633007	      8.83431897	      0.15418795	      3.04206860	    -18.18595989	     -7.09800904	     -0.85036392	      0.59443412	     -8.95066682	     30.08299181	      2.65011989	     69.39744413	    127.99139409	    104.77557729	     38.57038177	      7.37377929	     68.52798505	    123.92653115	     85.04417243
      0.10000000	     -0.35411186	     -4.65202916	      8.89268472	      0.31561579	      0.90912837	     -0.19289864	     28.97828019	      3.69361756	      2.90927310	     18.96936017	      0.33107779	     -3.67197498	    -23.71515869	     -7.15614086	     -0.09152687	      3.78742541	     23.30366611	      9.25388691	      0.16151080	      2.99406010	    -18.33881120	     -7.15614086	     -1.04293704	      1.12076927	     -9.17130401	     30.27186420	      2.47388638	     69.63911009	    127.50251349	    103.73038087	     38.79825245	      7.63650099	     68.59323491	    123.45848683	     82.76345625
      0.11666670	     -0.21621001	     -4.85515029	      9.08369440	      0.31990513	      0.90709023	     -0.19028523	     28.81713622	      3.95424701	      2.84090770	     18.97460381	      0.33116931	     -3.56159073	    -23.58513852	     -7.16057806	      0.05288777	      3.52832094	     23.43672470	      9.64059083	      0.16826005	      3.20387086	    -18.45984180	     -7.16057806	     -1.12646827	      1.38892443	     -9.32072955	     30.23163176	      2.43031075	     69.49242943	    127.15669043	    103.73547646	     38.78594584	      7.79565822	     68.62039730	    123.14882000	     82.59368140
      0.13333330	     -0.16432201	     -5.04622787	      9.01777530	      0.31574632	      0.90806489	     -0.19310078	     29.18693625	      4.02970943	      2.58462787	     19.38194241	      0.33827871	     -3.56696238	    -23.70484868	     -7.16192381	      0.19211058	      3.44700915	     23.40823417	      9.79769515	      0.17100204	      3.27400308	    -18.43296672	     -7.16192381	     -1.40502034	      1.90835768	     -9.31345800	     30.44278937	      2.34333029	     69.39203004	    127.05692663	    103.70626861	     38.86513734	      7.99541976	     68.60806053	    123.04460710	     82.50737237
      0.15000000	     -0.18479387	     -5.05057078	      9.23879326	      0.32029472	      0.90419639	     -0.19021632	     29.37270333	      4.01538104	      2.41288205	     19.47514811	      0.33990546	     -3.16989635	    -23.84133080	     -7.22453634	      0.25523769	      3.37949362	     23.51954174	      9.97851099	      0.17415787	      3.96692090	    -18.01471830	     -7.22453634	     -1.32281274	      1.74976036	     -9.05027936	     30.00493691	      2.51332644	     69.10642301	    127.06909435	    102.10833376	     38.78691247	      8.25513294	     68.99983707	    122.96023879	     78.11599356
      0.16666670	     -0.32373338	     -5.13823171	      9.36895608	      0.31996322	      0.90370414	     -0.19047969	     29.65718812	      4.04132769	      2.25296226	     19.73968036	      0.34452242	     -2.96901188	    -24.32442470	     -7.24673068	      0.26122437	      3.26911019	     23.91720679	      9.69320078	      0.16917827	      4.10771047	    -17.93523102	     -7.24673068	     -1.21261842	      1.82681524	     -8.96442497	     29.65171228	      2.71625026	     69.06904131	    127.19324406	    101.34958077	     38.48274214	      8.21262156	     69.32100964	    123.03145458	     76.95192209
      0.18333330	     -0.32394533	     -5.23634855	      9.34698889	      0.31978609	      0.90189850	     -0.19050418	     29.92424738	      4.24674293	      2.15614753	     19.92200333	      0.34770455	     -2.39852469	    -24.10808179	     -7.27436257	      0.21422946	      3.10559913	     23.92813310	      9.63890640	      0.16823065	      4.69714682	    -17.49082396	     -7.27436257	     -1.28801228	      1.91206334	     -8.82913493	     29.58355403	      2.93852805	     69.13262174	    127.64373308	     99.85339601	     38.32613109	      8.25315786	     69.51189197	    123.24804696	     75.86964819
      0.20000000	     -0.19954968	     -5.27979109	      9.45766928	      0.32000353	      0.90478643	     -0.19015982	     29.83826125	      4.41029740	      2.06455343	     19.92308360	      0.34772341	     -2.61915492	    -24.37778523	     -7.30834591	      0.08555134	      2.98783939	     23.95266749	      9.80105420	      0.17106067	      4.31345399	    -17.67178757	     -7.30834591	     -1.40304113	      1.83201929	     -8.63718916	     29.53901655	      2.97815762	     69.06030331	    127.89002190	     99.97607047	     37.92855804	      8.18155811	     69.83291475	    123.36713841	     75.53216871
      0.21666670	      0.04011544	     -5.28074062	      9.54495082	      0.31951735	      0.90508150	     -0.19044658	     29.51927772	      4.50481017	      1.64788477	     19.74007884	      0.34452937	     -2.42484058	    -23.92578375	     -7.37375361	     -0.33320033	      2.87170513	     24.08858133	      9.62458560	      0.16798071	      3.75026107	    -17.96170801	     -7.37375361	     -1.57734605	      1.83200909	     -8.86638429	     29.62575161	      3.21784303	     69.29301639	    128.13301050	     99.74063713	     37.77884174	      7.95662075	     69.85699512	    123.70829985	     74.11877545
